<mxfile host="app.diagrams.net" agent="Mozilla/5.0 (Windows NT 10.0; Win64; x64) AppleWebKit/537.36 (KHTML, like Gecko) Chrome/129.0.0.0 Safari/537.36" version="24.8.2">
  <diagram id="C5RBs43oDa-KdzZeNtuy" name="Page-1">
    <mxGraphModel dx="1130" dy="667" grid="1" gridSize="10" guides="1" tooltips="1" connect="1" arrows="1" fold="1" page="1" pageScale="1" pageWidth="827" pageHeight="1169" math="0" shadow="0">
      <root>
        <mxCell id="WIyWlLk6GJQsqaUBKTNV-0" />
        <mxCell id="WIyWlLk6GJQsqaUBKTNV-1" parent="WIyWlLk6GJQsqaUBKTNV-0" />
        <mxCell id="8QwRIge2SXFcwP3iRtz2-3" value="Start" style="ellipse;whiteSpace=wrap;html=1;fillColor=#808080;" vertex="1" parent="WIyWlLk6GJQsqaUBKTNV-1">
          <mxGeometry x="364" y="10" width="100" height="30" as="geometry" />
        </mxCell>
        <mxCell id="8QwRIge2SXFcwP3iRtz2-4" value="Initialize Shopping Card" style="rounded=0;whiteSpace=wrap;html=1;fillColor=#00CCCC;" vertex="1" parent="WIyWlLk6GJQsqaUBKTNV-1">
          <mxGeometry x="349" y="70" width="130" height="30" as="geometry" />
        </mxCell>
        <mxCell id="8QwRIge2SXFcwP3iRtz2-13" value="Display Menu" style="rounded=0;whiteSpace=wrap;html=1;fillColor=#00CCCC;" vertex="1" parent="WIyWlLk6GJQsqaUBKTNV-1">
          <mxGeometry x="349" y="130" width="130" height="30" as="geometry" />
        </mxCell>
        <mxCell id="8QwRIge2SXFcwP3iRtz2-14" value="User Choice" style="rhombus;whiteSpace=wrap;html=1;fillColor=#CDA2BE;" vertex="1" parent="WIyWlLk6GJQsqaUBKTNV-1">
          <mxGeometry x="374" y="200" width="80" height="80" as="geometry" />
        </mxCell>
        <mxCell id="8QwRIge2SXFcwP3iRtz2-16" value="Add Cart" style="rounded=0;whiteSpace=wrap;html=1;fillColor=#FFFF00;" vertex="1" parent="WIyWlLk6GJQsqaUBKTNV-1">
          <mxGeometry x="130" y="290" width="60" height="20" as="geometry" />
        </mxCell>
        <mxCell id="8QwRIge2SXFcwP3iRtz2-17" value="Remove Product" style="rounded=0;whiteSpace=wrap;html=1;fillColor=#FFFF00;" vertex="1" parent="WIyWlLk6GJQsqaUBKTNV-1">
          <mxGeometry x="130" y="330" width="100" height="20" as="geometry" />
        </mxCell>
        <mxCell id="8QwRIge2SXFcwP3iRtz2-18" value="Update Quantity" style="rounded=0;whiteSpace=wrap;html=1;fillColor=#FFFF00;" vertex="1" parent="WIyWlLk6GJQsqaUBKTNV-1">
          <mxGeometry x="190" y="380" width="90" height="20" as="geometry" />
        </mxCell>
        <mxCell id="8QwRIge2SXFcwP3iRtz2-19" value="View Cart" style="rounded=0;whiteSpace=wrap;html=1;fillColor=#FFFF00;" vertex="1" parent="WIyWlLk6GJQsqaUBKTNV-1">
          <mxGeometry x="320" y="440" width="70" height="20" as="geometry" />
        </mxCell>
        <mxCell id="8QwRIge2SXFcwP3iRtz2-20" value="Calculate Total" style="rounded=0;whiteSpace=wrap;html=1;fillColor=#FFFF33;" vertex="1" parent="WIyWlLk6GJQsqaUBKTNV-1">
          <mxGeometry x="560" y="320" width="90" height="20" as="geometry" />
        </mxCell>
        <mxCell id="8QwRIge2SXFcwP3iRtz2-24" value="Apply Discount" style="rounded=0;whiteSpace=wrap;html=1;fillColor=#FFFF00;" vertex="1" parent="WIyWlLk6GJQsqaUBKTNV-1">
          <mxGeometry x="440" y="440" width="90" height="20" as="geometry" />
        </mxCell>
        <mxCell id="8QwRIge2SXFcwP3iRtz2-25" value="Checkout" style="rounded=0;whiteSpace=wrap;html=1;fillColor=#FFFF00;" vertex="1" parent="WIyWlLk6GJQsqaUBKTNV-1">
          <mxGeometry x="580" y="280" width="90" height="20" as="geometry" />
        </mxCell>
        <mxCell id="8QwRIge2SXFcwP3iRtz2-26" value="Get Recommendation" style="rounded=0;whiteSpace=wrap;html=1;fillColor=#FFFF00;" vertex="1" parent="WIyWlLk6GJQsqaUBKTNV-1">
          <mxGeometry x="519" y="380" width="121" height="20" as="geometry" />
        </mxCell>
        <mxCell id="8QwRIge2SXFcwP3iRtz2-37" value="Cart Expirtaion" style="rounded=0;whiteSpace=wrap;html=1;fillColor=#00FFFF;" vertex="1" parent="WIyWlLk6GJQsqaUBKTNV-1">
          <mxGeometry x="354" y="520" width="120" height="30" as="geometry" />
        </mxCell>
        <mxCell id="8QwRIge2SXFcwP3iRtz2-38" value="End" style="ellipse;whiteSpace=wrap;html=1;fillColor=#808080;" vertex="1" parent="WIyWlLk6GJQsqaUBKTNV-1">
          <mxGeometry x="354" y="585" width="120" height="40" as="geometry" />
        </mxCell>
        <mxCell id="8QwRIge2SXFcwP3iRtz2-39" value="" style="endArrow=classic;html=1;rounded=0;exitX=0.5;exitY=1;exitDx=0;exitDy=0;entryX=0.5;entryY=0;entryDx=0;entryDy=0;" edge="1" parent="WIyWlLk6GJQsqaUBKTNV-1" source="8QwRIge2SXFcwP3iRtz2-3" target="8QwRIge2SXFcwP3iRtz2-4">
          <mxGeometry width="50" height="50" relative="1" as="geometry">
            <mxPoint x="460" y="180" as="sourcePoint" />
            <mxPoint x="510" y="130" as="targetPoint" />
          </mxGeometry>
        </mxCell>
        <mxCell id="8QwRIge2SXFcwP3iRtz2-40" value="" style="endArrow=classic;html=1;rounded=0;exitX=0.5;exitY=1;exitDx=0;exitDy=0;entryX=0.5;entryY=0;entryDx=0;entryDy=0;" edge="1" parent="WIyWlLk6GJQsqaUBKTNV-1" source="8QwRIge2SXFcwP3iRtz2-4" target="8QwRIge2SXFcwP3iRtz2-13">
          <mxGeometry width="50" height="50" relative="1" as="geometry">
            <mxPoint x="423" y="90" as="sourcePoint" />
            <mxPoint x="519" y="130" as="targetPoint" />
          </mxGeometry>
        </mxCell>
        <mxCell id="8QwRIge2SXFcwP3iRtz2-41" value="" style="endArrow=classic;html=1;rounded=0;exitX=0.5;exitY=1;exitDx=0;exitDy=0;entryX=0.5;entryY=0;entryDx=0;entryDy=0;" edge="1" parent="WIyWlLk6GJQsqaUBKTNV-1" source="8QwRIge2SXFcwP3iRtz2-13" target="8QwRIge2SXFcwP3iRtz2-14">
          <mxGeometry width="50" height="50" relative="1" as="geometry">
            <mxPoint x="420" y="180" as="sourcePoint" />
            <mxPoint x="510" y="250" as="targetPoint" />
          </mxGeometry>
        </mxCell>
        <mxCell id="8QwRIge2SXFcwP3iRtz2-44" value="" style="endArrow=classic;html=1;rounded=0;exitX=0.5;exitY=1;exitDx=0;exitDy=0;entryX=1;entryY=0.5;entryDx=0;entryDy=0;" edge="1" parent="WIyWlLk6GJQsqaUBKTNV-1" source="8QwRIge2SXFcwP3iRtz2-14" target="8QwRIge2SXFcwP3iRtz2-16">
          <mxGeometry width="50" height="50" relative="1" as="geometry">
            <mxPoint x="460" y="300" as="sourcePoint" />
            <mxPoint x="510" y="250" as="targetPoint" />
          </mxGeometry>
        </mxCell>
        <mxCell id="8QwRIge2SXFcwP3iRtz2-45" value="" style="endArrow=classic;html=1;rounded=0;exitX=0.5;exitY=1;exitDx=0;exitDy=0;entryX=1;entryY=0.5;entryDx=0;entryDy=0;" edge="1" parent="WIyWlLk6GJQsqaUBKTNV-1" source="8QwRIge2SXFcwP3iRtz2-14" target="8QwRIge2SXFcwP3iRtz2-17">
          <mxGeometry width="50" height="50" relative="1" as="geometry">
            <mxPoint x="460" y="300" as="sourcePoint" />
            <mxPoint x="510" y="250" as="targetPoint" />
          </mxGeometry>
        </mxCell>
        <mxCell id="8QwRIge2SXFcwP3iRtz2-46" value="" style="endArrow=classic;html=1;rounded=0;entryX=0.75;entryY=0;entryDx=0;entryDy=0;" edge="1" parent="WIyWlLk6GJQsqaUBKTNV-1" target="8QwRIge2SXFcwP3iRtz2-18">
          <mxGeometry width="50" height="50" relative="1" as="geometry">
            <mxPoint x="414" y="280" as="sourcePoint" />
            <mxPoint x="510" y="250" as="targetPoint" />
          </mxGeometry>
        </mxCell>
        <mxCell id="8QwRIge2SXFcwP3iRtz2-47" value="" style="endArrow=classic;html=1;rounded=0;exitX=0.5;exitY=1;exitDx=0;exitDy=0;entryX=0;entryY=0.5;entryDx=0;entryDy=0;" edge="1" parent="WIyWlLk6GJQsqaUBKTNV-1" source="8QwRIge2SXFcwP3iRtz2-14" target="8QwRIge2SXFcwP3iRtz2-25">
          <mxGeometry width="50" height="50" relative="1" as="geometry">
            <mxPoint x="460" y="300" as="sourcePoint" />
            <mxPoint x="510" y="250" as="targetPoint" />
          </mxGeometry>
        </mxCell>
        <mxCell id="8QwRIge2SXFcwP3iRtz2-48" value="" style="endArrow=classic;html=1;rounded=0;entryX=0;entryY=0.5;entryDx=0;entryDy=0;" edge="1" parent="WIyWlLk6GJQsqaUBKTNV-1" target="8QwRIge2SXFcwP3iRtz2-20">
          <mxGeometry width="50" height="50" relative="1" as="geometry">
            <mxPoint x="414" y="280" as="sourcePoint" />
            <mxPoint x="510" y="250" as="targetPoint" />
          </mxGeometry>
        </mxCell>
        <mxCell id="8QwRIge2SXFcwP3iRtz2-49" value="" style="endArrow=classic;html=1;rounded=0;exitX=0.5;exitY=1;exitDx=0;exitDy=0;entryX=0.25;entryY=0;entryDx=0;entryDy=0;" edge="1" parent="WIyWlLk6GJQsqaUBKTNV-1" source="8QwRIge2SXFcwP3iRtz2-14" target="8QwRIge2SXFcwP3iRtz2-26">
          <mxGeometry width="50" height="50" relative="1" as="geometry">
            <mxPoint x="460" y="300" as="sourcePoint" />
            <mxPoint x="510" y="250" as="targetPoint" />
          </mxGeometry>
        </mxCell>
        <mxCell id="8QwRIge2SXFcwP3iRtz2-50" value="" style="endArrow=classic;html=1;rounded=0;exitX=0.5;exitY=1;exitDx=0;exitDy=0;entryX=0.5;entryY=0;entryDx=0;entryDy=0;" edge="1" parent="WIyWlLk6GJQsqaUBKTNV-1" source="8QwRIge2SXFcwP3iRtz2-14" target="8QwRIge2SXFcwP3iRtz2-19">
          <mxGeometry width="50" height="50" relative="1" as="geometry">
            <mxPoint x="460" y="300" as="sourcePoint" />
            <mxPoint x="510" y="250" as="targetPoint" />
          </mxGeometry>
        </mxCell>
        <mxCell id="8QwRIge2SXFcwP3iRtz2-51" value="" style="endArrow=classic;html=1;rounded=0;exitX=0.5;exitY=1;exitDx=0;exitDy=0;" edge="1" parent="WIyWlLk6GJQsqaUBKTNV-1" source="8QwRIge2SXFcwP3iRtz2-14" target="8QwRIge2SXFcwP3iRtz2-24">
          <mxGeometry width="50" height="50" relative="1" as="geometry">
            <mxPoint x="460" y="300" as="sourcePoint" />
            <mxPoint x="510" y="250" as="targetPoint" />
          </mxGeometry>
        </mxCell>
        <mxCell id="8QwRIge2SXFcwP3iRtz2-54" value="" style="endArrow=classic;html=1;rounded=0;exitX=0.5;exitY=1;exitDx=0;exitDy=0;entryX=0.5;entryY=0;entryDx=0;entryDy=0;" edge="1" parent="WIyWlLk6GJQsqaUBKTNV-1" source="8QwRIge2SXFcwP3iRtz2-14" target="8QwRIge2SXFcwP3iRtz2-37">
          <mxGeometry width="50" height="50" relative="1" as="geometry">
            <mxPoint x="500" y="370" as="sourcePoint" />
            <mxPoint x="550" y="320" as="targetPoint" />
          </mxGeometry>
        </mxCell>
        <mxCell id="8QwRIge2SXFcwP3iRtz2-56" value="" style="endArrow=classic;html=1;rounded=0;exitX=0.5;exitY=1;exitDx=0;exitDy=0;entryX=0.5;entryY=0;entryDx=0;entryDy=0;" edge="1" parent="WIyWlLk6GJQsqaUBKTNV-1" source="8QwRIge2SXFcwP3iRtz2-37" target="8QwRIge2SXFcwP3iRtz2-38">
          <mxGeometry width="50" height="50" relative="1" as="geometry">
            <mxPoint x="500" y="370" as="sourcePoint" />
            <mxPoint x="550" y="320" as="targetPoint" />
          </mxGeometry>
        </mxCell>
      </root>
    </mxGraphModel>
  </diagram>
</mxfile>
